

<!DOCTYPE svg PUBLIC "-//W3C//DTD SVG 20010904//EN"
 "http://www.w3.org/TR/2001/REC-SVG-20010904/DTD/svg10.dtd">
<svg version="1.0" xmlns="http://www.w3.org/2000/svg" viewBox="0 0 180 24" style="enable-background:new 0 0 180 24;"
 preserveAspectRatio="xMidYMid meet">
	<style type="text/css">
		.st0{fill:#4A4A4A;}
	</style>
	<g transform="translate(0.000000,774.000000) scale(0.100000,-0.100000)"
	fill="#000000" stroke="none">
		<path d="M3325 7720 c-735 -74 -1389 -342 -1980 -814 -138 -111 -411 -386
-531 -536 -618 -775 -895 -1727 -788 -2710 144 -1327 1011 -2479 2248 -2987
301 -124 603 -203 952 -250 164 -22 684 -25 844 -5 373 46 715 135 1019 263
139 59 392 189 496 254 107 68 99 60 88 79 -7 12 -30 2 -133 -61 -458 -276
-976 -447 -1525 -504 -170 -18 -558 -15 -730 5 -386 45 -739 140 -1085 292
-561 247 -1063 649 -1444 1156 -333 444 -570 996 -666 1553 -69 403 -66 869
11 1280 64 350 206 748 376 1060 86 157 248 402 359 540 109 137 426 455 557
559 1264 1005 2988 1074 4317 175 804 -544 1353 -1387 1535 -2359 49 -257 69
-671 46 -942 -31 -359 -122 -743 -257 -1071 -24 -59 -44 -110 -44 -112 0 -3 8
-5 19 -5 13 0 25 16 40 53 409 969 383 2079 -70 3017 -201 415 -434 738 -756
1050 -571 553 -1274 893 -2083 1006 -135 19 -673 28 -815 14z"/>
		<path d="M3435 7262 c-6 -5 -66 -14 -135 -21 -555 -52 -1154 -301 -1621 -672
-99 -79 -323 -288 -316 -296 2 -2 55 10 118 26 406 106 900 183 1342 212 340
22 1176 -4 1262 -40 11 -5 -115 -11 -295 -14 -329 -5 -534 -21 -833 -63 -585
-82 -1147 -232 -1682 -449 -285 -116 -268 -105 -319 -188 -84 -136 -244 -452
-234 -463 2 -2 65 27 139 64 1184 597 2493 854 3804 747 343 -28 344 -30 30
-38 -294 -7 -561 -25 -780 -52 -1154 -145 -2202 -540 -3165 -1192 -178 -121
-212 -154 -229 -222 -23 -89 -62 -511 -47 -511 4 0 46 31 94 69 280 220 658
469 987 648 888 486 1914 781 2963 853 166 11 743 12 857 1 l70 -7 -85 -7
c-47 -4 -157 -12 -245 -18 -1410 -95 -2814 -649 -3940 -1554 -260 -209 -645
-571 -645 -606 0 -40 90 -370 135 -494 58 -161 189 -434 279 -580 38 -60 112
-168 166 -240 550 -732 1331 -1173 2249 -1270 505 -53 1065 30 1546 230 177
73 465 231 594 325 l20 15 -23 95 c-47 193 -99 673 -82 763 9 51 49 85 104 92
238 31 689 181 878 293 27 16 75 46 107 67 39 26 64 36 81 33 23 -5 27 2 69
111 57 145 107 312 141 461 23 104 32 162 67 425 15 108 6 518 -14 671 -51
384 -138 667 -315 1019 -170 341 -335 576 -581 829 -396 405 -884 684 -1489
850 -250 69 -474 98 -787 103 -127 2 -235 0 -240 -5z m2555 -2589 c0 -5 -26
-19 -57 -33 -226 -97 -407 -296 -512 -561 -78 -198 -90 -291 -101 -779 -12
-549 -29 -709 -101 -925 -88 -265 -279 -431 -563 -490 -92 -18 -235 -34 -254
-27 -10 3 -12 190 -10 956 3 951 3 951 26 1021 29 92 81 200 133 276 88 130
270 285 426 363 202 101 499 174 793 195 159 11 220 12 220 4z m-2810 -270
c396 -65 793 -323 1088 -707 l47 -61 2 -880 c2 -483 0 -882 -5 -886 -4 -5 -51
5 -105 21 -124 37 -298 74 -457 97 -100 14 -195 17 -470 18 -379 0 -531 -13
-840 -74 -80 -16 -148 -27 -152 -24 -5 2 -8 60 -8 128 l0 124 38 7 c62 12 697
9 842 -4 445 -41 759 -110 996 -221 48 -23 89 -41 93 -41 12 0 -128 90 -209
133 -249 134 -558 224 -950 278 -120 16 -229 22 -482 26 l-328 5 0 779 c0 428
4 780 8 783 4 2 56 10 114 17 87 10 110 10 122 0 14 -12 16 -95 18 -715 l3
-701 193 -12 c105 -6 240 -19 300 -28 455 -67 876 -244 1148 -481 87 -76 87
-70 0 30 -135 153 -341 305 -550 406 -262 126 -557 199 -881 218 l-130 7 -3
765 c-1 421 0 775 3 788 5 22 8 23 118 20 l112 -3 5 -714 5 -715 130 -22 c306
-51 544 -141 775 -295 160 -105 367 -324 507 -535 24 -36 -18 61 -59 136 -156
286 -390 516 -668 655 -155 78 -456 175 -542 175 -16 0 -37 9 -48 20 -20 20
-20 33 -20 749 0 650 2 731 16 745 18 18 64 16 224 -11z"/>
		<path d="M10837 6279 c-343 -28 -605 -147 -752 -340 -71 -94 -149 -264 -184
-400 -69 -269 -81 -478 -81 -1484 0 -791 9 -1063 39 -1270 88 -594 300 -849
793 -957 135 -29 525 -37 691 -14 476 67 727 288 841 742 57 231 76 450 76
912 l0 322 -489 0 -490 0 -3 -487 c-4 -436 -6 -494 -22 -543 -34 -106 -102
-145 -238 -138 -140 7 -187 56 -208 218 -8 58 -10 451 -8 1255 3 1086 5 1174
21 1222 10 29 29 66 43 82 64 77 266 81 340 7 62 -62 67 -98 72 -518 l3 -378
491 0 491 0 -6 288 c-12 566 -80 876 -248 1123 -183 270 -620 404 -1172 358z"/>
		<path d="M8280 4040 l0 -2190 480 0 480 0 0 2190 0 2190 -480 0 -480 0 0
-2190z"/>
		<path d="M12570 5830 l0 -400 285 0 285 0 0 -1790 0 -1790 480 0 480 0 0 1790
0 1790 280 0 280 0 0 400 0 400 -1045 0 -1045 0 0 -400z"/>
		<path d="M15053 4578 c3 -1509 5 -1663 20 -1768 38 -248 85 -412 157 -547 88
-164 181 -253 355 -338 188 -92 364 -125 670 -125 469 0 751 100 937 332 122
151 193 344 246 663 14 89 16 276 19 1768 l4 1667 -480 0 -480 0 -4 -1697 c-3
-1820 -1 -1762 -51 -1837 -26 -40 -92 -69 -171 -74 -136 -9 -211 35 -242 143
-16 56 -18 176 -21 1763 l-3 1702 -480 0 -480 0 4 -1652z"/>
		<path d="M6500 2688 c-153 -111 -582 -274 -869 -329 -58 -11 -116 -22 -128
-25 -22 -4 -23 -9 -23 -102 0 -295 62 -671 156 -945 114 -332 266 -598 482
-843 138 -156 399 -364 457 -364 49 0 242 146 390 295 430 431 691 1103 698
1794 l2 164 -100 17 c-129 22 -240 52 -390 102 -247 83 -397 150 -519 232 -38
25 -76 46 -85 45 -9 0 -41 -19 -71 -41z m150 -49 c180 -119 552 -257 855 -318
l129 -26 -2 -95 c-16 -578 -187 -1129 -476 -1533 -140 -196 -335 -389 -507
-504 -80 -53 -73 -54 -184 25 -345 244 -635 651 -789 1105 -94 279 -156 636
-156 904 l0 102 38 6 c253 41 623 162 842 276 41 21 98 54 125 73 28 18 55 31
60 27 6 -3 35 -22 65 -42z"/>
		<path d="M6415 2518 c-199 -104 -528 -214 -813 -274 -22 -4 -23 -7 -17 -97 14
-215 62 -557 81 -576 2 -3 11 2 18 10 12 12 12 26 1 94 -19 112 -40 414 -31
448 13 51 48 74 138 87 95 14 286 67 408 115 102 39 212 93 222 109 35 54 68
116 61 116 -4 -1 -35 -15 -68 -32z"/>
		<path d="M6898 2399 c-22 -37 -22 -45 -3 -53 10 -4 21 7 35 33 10 21 16 41 13
45 -13 13 -29 5 -45 -25z"/>
		<path d="M6499 2375 c-81 -54 -213 -113 -371 -166 -142 -47 -309 -89 -357 -89
l-34 0 6 -147 c22 -510 186 -956 474 -1288 104 -120 316 -295 358 -295 42 0
254 175 358 295 289 334 451 775 474 1288 l6 147 -34 0 c-129 0 -568 152 -722
250 -43 28 -81 50 -85 49 -4 0 -37 -20 -73 -44z m131 -385 c26 -26 26 -81 0
-105 -26 -23 -40 -75 -31 -116 6 -28 13 -35 57 -49 28 -10 60 -23 71 -30 42
-27 113 44 113 113 0 12 10 31 22 44 28 30 74 30 105 1 50 -47 11 -128 -63
-128 -28 0 -44 -8 -70 -34 -39 -39 -41 -53 -14 -106 11 -22 20 -46 20 -54 0
-53 91 -62 159 -16 51 35 52 35 91 15 53 -27 52 -103 -1 -130 -35 -19 -61 -13
-103 22 -40 34 -115 30 -133 -7 -39 -81 -54 -122 -49 -138 11 -34 54 -64 103
-73 78 -14 108 -76 61 -126 -45 -48 -128 -18 -128 47 0 43 -25 87 -59 105 -27
14 -33 13 -88 -11 -90 -39 -88 -37 -91 -91 -2 -42 1 -55 23 -81 70 -84 -29
-187 -102 -106 -31 34 -29 64 7 109 17 22 30 50 30 66 0 43 -17 79 -38 79 -10
0 -41 11 -68 25 -27 14 -57 22 -66 19 -30 -9 -65 -61 -72 -107 -8 -53 -32 -78
-77 -79 -36 -1 -79 38 -79 73 0 35 53 79 95 79 50 0 100 48 92 88 -10 49 -44
134 -58 143 -28 18 -91 10 -124 -15 -53 -41 -80 -43 -115 -8 -36 37 -38 62 -7
98 31 36 75 36 117 1 49 -41 150 -34 150 11 0 9 11 39 24 67 23 47 24 51 8 78
-18 31 -59 57 -91 57 -47 0 -91 41 -91 84 0 30 41 66 75 66 45 0 74 -27 81
-75 8 -55 21 -79 56 -99 29 -18 31 -17 86 7 31 13 64 27 73 30 19 6 33 68 23
100 -4 12 -17 35 -30 50 -29 35 -30 66 -3 101 26 33 79 36 109 6z"/>
		<path d="M6498 1613 l-3 -68 -72 -3 -73 -3 0 -79 0 -79 73 -3 72 -3 3 -72 3
-72 74 0 75 0 0 59 c0 88 1 90 81 90 l69 0 0 80 0 79 -72 3 -73 3 -3 68 -3 67
-74 0 -74 0 -3 -67z"/>
		<path d="M5810 1131 c0 -5 3 -17 6 -25 5 -13 10 -14 20 -6 7 7 10 18 7 26 -6
15 -33 20 -33 5z"/>
	</g>
</svg>
