<svg version="1.0" xmlns="http://www.w3.org/2000/svg"
 width="100" height="100" viewBox="0 0 300.000000 300.000000"
 preserveAspectRatio="xMidYMid meet">

	<g transform="translate(0.000000,300.000000) scale(0.100000,-0.100000)"
	fill="#0073ba" stroke="none">
		<path d="M1340 2985 c-333 -41 -615 -171 -865 -399 l-60 -55 99 25 c282 71
559 99 896 91 260 -7 404 -24 214 -26 -422 -4 -834 -85 -1237 -243 -126 -49
-129 -51 -161 -102 -34 -52 -80 -139 -95 -179 -8 -19 4 -16 98 30 519 256
1127 375 1706 334 224 -16 244 -30 44 -31 -628 -1 -1263 -196 -1806 -556
l-141 -93 -7 -53 c-4 -29 -11 -90 -14 -135 l-6 -81 25 19 c502 383 1001 597
1605 689 110 17 200 23 420 26 177 2 273 1 260 -5 -11 -5 -49 -10 -85 -10 -83
-1 -283 -26 -424 -52 -626 -117 -1216 -420 -1684 -865 l-93 -89 25 -95 c114
-432 387 -770 781 -967 482 -242 1046 -206 1499 94 133 87 319 273 405 402
119 179 192 356 233 564 28 144 30 385 5 527 -57 315 -194 577 -417 800 -259
260 -561 401 -939 439 -123 13 -145 13 -281 -4z m1250 -1202 c-1 -5 -24 -19
-51 -32 -112 -52 -212 -195 -244 -346 -8 -39 -15 -124 -15 -190 0 -169 -17
-387 -36 -458 -30 -117 -77 -186 -157 -235 -51 -31 -160 -61 -220 -62 l-28 0
3 468 3 467 33 66 c73 146 220 249 421 295 104 24 291 41 291 27z m-1220 -149
c140 -47 275 -141 380 -266 l60 -72 0 -411 c0 -227 -3 -414 -6 -417 -3 -3 -31
2 -63 12 -128 38 -192 45 -431 45 -220 0 -345 -12 -442 -41 -16 -5 -18 2 -18
59 l0 65 95 7 c231 17 605 -30 753 -95 79 -35 42 -9 -50 35 -177 85 -356 122
-625 132 l-173 6 0 369 0 368 23 0 c12 0 39 3 60 6 l37 7 0 -336 0 -335 98 -7
c264 -19 507 -100 646 -214 39 -33 38 -32 -9 18 -131 138 -338 227 -581 253
l-114 12 0 368 0 368 60 0 61 0 -3 -334 -3 -334 45 -7 c214 -30 438 -153 549
-301 62 -81 69 -87 36 -29 -71 128 -178 233 -304 299 -68 36 -224 86 -267 86
l-24 0 0 361 0 362 67 -7 c37 -4 101 -18 143 -32z"/>
	</g>
</svg>